<svg version="1.1" id="Layer_1" xmlns="http://www.w3.org/2000/svg" xmlns:xlink="http://www.w3.org/1999/xlink" x="0px" y="0px"
	 width="100%" viewBox="0 0 500 500" enable-background="new 0 0 500 500" xml:space="preserve">
<path fill="none" opacity="1.000000" stroke="none" 
	d="
M328.000000,501.000000 
	C218.666687,501.000000 109.833382,501.000000 1.000058,501.000000 
	C1.000039,334.333405 1.000039,167.666794 1.000019,1.000148 
	C167.666565,1.000099 334.333130,1.000099 500.999756,1.000049 
	C500.999847,167.666519 500.999847,334.333038 500.999939,500.999786 
	C443.500000,501.000000 386.000000,501.000000 328.000000,501.000000 
M372.028473,120.077316 
	C364.634186,120.019592 357.239899,119.961868 349.649261,119.248489 
	C340.221710,113.842888 331.161102,107.615448 321.288116,103.207565 
	C302.370605,94.761696 282.203033,90.692307 261.515503,90.151527 
	C252.711624,89.921394 243.818817,90.966492 235.047470,92.073997 
	C218.188217,94.202728 202.082504,99.129379 186.831268,106.651390 
	C168.793915,115.547562 153.079102,127.381638 139.150528,142.068436 
	C122.542801,159.580231 110.779350,179.732498 103.424240,202.412033 
	C99.243134,215.304504 97.021049,228.696320 95.671684,242.350693 
	C94.388947,255.330719 95.339851,268.019135 97.512840,280.522034 
	C99.474869,291.811096 103.090126,302.951813 107.205986,313.686493 
	C110.945221,323.438873 116.340141,332.556488 121.335464,342.249298 
	C121.482971,342.820312 121.630470,343.391296 122.006683,344.645020 
	C125.574677,349.168365 129.261520,353.604767 132.661270,358.251190 
	C134.398956,360.626099 135.622208,363.377411 136.315475,365.957916 
	C134.522598,366.963379 132.729721,367.968842 130.522736,369.170105 
	C130.263687,369.350586 130.077545,369.588165 129.496338,370.100708 
	C129.362762,370.400604 129.229187,370.700470 128.746063,371.709900 
	C127.260124,377.590851 128.713348,381.781219 133.314590,383.493622 
	C135.377426,384.261322 137.798157,384.067291 140.685638,384.845001 
	C146.848999,384.841370 153.017303,384.697906 159.172897,384.914612 
	C161.159576,384.984558 163.284836,385.683167 165.052750,386.638336 
	C174.339493,391.655579 183.292557,397.352051 192.810165,401.866760 
	C209.375549,409.724518 227.043243,414.521973 245.268082,415.805389 
	C265.447601,417.226410 285.720703,416.174194 305.357666,410.764618 
	C329.807983,404.029083 351.490601,391.789154 370.405151,374.963959 
	C387.666718,359.609283 400.611725,341.157593 409.222198,319.538544 
	C416.091949,302.290131 420.752167,284.550018 421.823364,266.126709 
	C422.785461,249.579666 421.909424,233.085449 418.211914,216.656097 
	C413.572479,196.041351 405.455383,177.186325 392.745758,160.512024 
	C386.668854,152.539505 381.969025,144.764755 383.707306,134.368454 
	C383.873566,133.374176 383.335480,132.262131 382.991180,130.439209 
	C381.346588,127.948105 379.701965,125.457008 377.750519,122.358513 
	C376.153595,121.610451 374.556671,120.862381 372.028473,120.077316 
z"/>
<path fill="#FDFEFE" opacity="1.000000" stroke="none" 
	d="
M383.124390,131.204773 
	C383.335480,132.262131 383.873566,133.374176 383.707306,134.368454 
	C381.969025,144.764755 386.668854,152.539505 392.745758,160.512024 
	C405.455383,177.186325 413.572479,196.041351 418.211914,216.656097 
	C421.909424,233.085449 422.785461,249.579666 421.823364,266.126709 
	C420.752167,284.550018 416.091949,302.290131 409.222198,319.538544 
	C400.611725,341.157593 387.666718,359.609283 370.405151,374.963959 
	C351.490601,391.789154 329.807983,404.029083 305.357666,410.764618 
	C285.720703,416.174194 265.447601,417.226410 245.268082,415.805389 
	C227.043243,414.521973 209.375549,409.724518 192.810165,401.866760 
	C183.292557,397.352051 174.339493,391.655579 165.052750,386.638336 
	C163.284836,385.683167 161.159576,384.984558 159.172897,384.914612 
	C153.017303,384.697906 146.848999,384.841370 140.627930,384.511841 
	C140.732040,384.111237 140.893860,384.043793 141.508850,384.078979 
	C158.973541,384.124634 175.985062,384.067627 193.365082,384.118042 
	C194.490799,384.150757 195.247971,384.076050 196.424454,384.087280 
	C198.548431,384.047729 200.253098,383.922333 202.371307,383.854797 
	C254.530792,374.587341 282.039886,343.760345 285.078491,290.940948 
	C299.517975,290.940948 314.001465,290.688080 328.470886,291.030487 
	C337.995453,291.255951 346.115784,288.533203 353.336548,281.940521 
	C355.749756,278.891510 357.832977,275.921997 359.956177,272.950134 
	C359.996124,272.947815 359.935425,272.895599 360.160522,272.672974 
	C360.660309,271.673309 360.935028,270.896301 361.128784,270.092468 
	C361.047791,270.065674 361.185425,270.166534 361.453796,269.963745 
	C361.905426,268.894562 362.088654,268.028198 362.167114,267.110413 
	C362.062347,267.059021 362.246826,267.202026 362.524689,266.928589 
	C367.261566,247.904861 357.710449,229.653748 340.778442,224.868774 
	C340.265747,224.617737 339.952332,224.566299 339.332153,224.364731 
	C337.330780,223.950867 335.621368,223.776962 333.463196,223.487396 
	C318.037323,223.448776 303.060272,223.525848 287.709656,223.451065 
	C286.533417,223.330109 285.730743,223.360992 284.792938,223.214035 
	C284.657837,223.036194 284.223694,222.931259 284.262207,222.468597 
	C284.211426,214.677521 284.122131,207.349091 284.200317,199.737152 
	C284.883392,199.058487 285.399017,198.663345 286.291199,198.439514 
	C287.476288,198.519379 288.284790,198.427963 289.541931,198.448364 
	C310.964447,198.493958 331.938324,198.427750 353.352783,198.516251 
	C358.556152,198.217834 363.318939,197.764725 368.329529,197.284637 
	C368.577332,197.257660 368.997192,196.988998 369.333527,197.006958 
	C370.791168,196.358536 371.912445,195.692139 373.019531,195.011276 
	C373.005310,194.996796 373.021118,195.032242 373.357239,194.977417 
	C378.806152,191.198303 382.433105,186.560806 382.962524,179.509491 
	C383.034729,163.365875 383.027344,147.683380 383.106873,131.809814 
	C383.193848,131.618774 383.124359,131.204773 383.124390,131.204773 
z"/>
<path fill="#FCFDFD" opacity="1.000000" stroke="none" 
	d="
M121.005165,341.953918 
	C116.340141,332.556488 110.945221,323.438873 107.205986,313.686493 
	C103.090126,302.951813 99.474869,291.811096 97.512840,280.522034 
	C95.339851,268.019135 94.388947,255.330719 95.671684,242.350693 
	C97.021049,228.696320 99.243134,215.304504 103.424240,202.412033 
	C110.779350,179.732498 122.542801,159.580231 139.150528,142.068436 
	C153.079102,127.381638 168.793915,115.547562 186.831268,106.651390 
	C202.082504,99.129379 218.188217,94.202728 235.047470,92.073997 
	C243.818817,90.966492 252.711624,89.921394 261.515503,90.151527 
	C282.203033,90.692307 302.370605,94.761696 321.288116,103.207565 
	C331.161102,107.615448 340.221710,113.842888 349.520233,119.572273 
	C349.391205,119.896057 348.972656,120.070984 348.512146,119.991486 
	C337.275818,119.903305 326.499786,119.854767 315.724121,119.894730 
	C296.831268,119.964798 277.938599,120.089127 258.639862,120.130516 
	C255.645691,120.584610 253.016281,120.947136 250.475861,121.637192 
	C229.770462,127.261436 213.888474,139.522308 201.528168,157.103806 
	C200.114761,156.632385 199.095291,156.138855 198.049438,155.709641 
	C193.855484,153.988464 188.501923,156.152802 186.835541,160.225998 
	C185.043365,164.606735 186.756500,168.791046 191.209732,170.893509 
	C192.094696,171.311295 192.991257,171.704468 193.786728,172.448822 
	C191.658386,178.169647 189.625778,183.550629 187.502396,189.171921 
	C180.067078,189.171921 172.576309,188.986389 165.099594,189.230835 
	C159.158981,189.425049 155.751205,193.069977 156.021957,198.237061 
	C156.296844,203.483063 159.309006,205.992676 165.523666,206.030273 
	C172.432343,206.072067 179.341476,206.039841 186.462357,206.039841 
	C186.462357,212.680618 186.462357,218.609726 186.462357,225.068100 
	C182.497650,225.068100 178.717239,225.069763 174.936813,225.067795 
	C161.119125,225.060577 147.301102,225.002975 133.484055,225.092941 
	C131.202713,225.107788 128.739944,225.335205 126.685402,226.218719 
	C122.496964,228.019913 120.905960,231.555847 121.836418,236.019562 
	C122.865250,240.955200 126.761513,241.932480 130.944519,241.975174 
	C144.591034,242.114426 158.239044,242.107529 171.895416,242.614349 
	C171.951889,248.390015 171.999451,253.708176 172.014206,259.363953 
	C172.008743,260.152771 172.036102,260.603973 171.648392,261.184204 
	C168.766266,261.441345 166.291351,261.485657 163.833908,261.716217 
	C159.630951,262.110596 157.241943,264.404755 156.953705,268.696533 
	C156.661942,273.040894 156.971985,277.058899 162.708405,278.486084 
	C170.706146,278.861908 178.346420,278.936584 185.993027,279.005615 
	C185.999359,279.000000 185.993362,279.014526 186.186050,279.447968 
	C186.280838,285.592804 186.182922,291.304199 185.809021,297.000793 
	C185.355896,297.036682 185.178741,297.087341 184.539124,297.056213 
	C166.327072,296.968262 148.577393,296.933014 130.827911,296.975861 
	C126.187111,296.987061 122.657402,299.007141 121.773041,303.801514 
	C120.979324,308.104462 122.385719,311.624603 127.073868,313.200073 
	C127.151146,313.279510 127.365295,313.222412 127.570107,313.467590 
	C128.187073,313.751343 128.599213,313.789886 129.470978,313.922241 
	C144.935837,314.016693 159.941116,314.017303 174.891663,314.066956 
	C174.836945,314.115997 174.899750,314.248840 174.938431,314.698486 
	C175.044708,321.409821 175.112305,327.671539 175.105988,334.399811 
	C175.062668,340.251556 175.093246,345.636719 175.093735,351.485931 
	C175.052246,356.582367 175.040848,361.214813 174.562164,365.905151 
	C161.755890,365.961578 149.416946,365.960083 137.077988,365.958588 
	C135.622208,363.377411 134.398956,360.626099 132.661270,358.251190 
	C129.261520,353.604767 125.574677,349.168365 122.210861,344.264313 
	C122.950340,344.212799 123.485649,344.541962 124.139542,345.057434 
	C124.258118,345.243744 124.682419,345.366455 124.816940,345.333557 
	C124.951469,345.300690 124.675285,345.321442 124.928322,345.633423 
	C135.441422,346.237335 145.701477,346.529297 156.310730,346.825714 
	C160.837891,344.749420 163.184875,341.639069 161.638672,336.832764 
	C160.163223,332.246368 156.733307,330.665710 152.009598,330.833405 
	C145.728241,331.056335 139.432587,330.874176 133.143082,330.870544 
	C124.061234,330.865326 121.840950,332.894562 121.005165,341.953918 
M174.182770,160.424545 
	C172.730637,158.945206 171.349976,156.282883 169.814072,156.190079 
	C162.944489,155.775024 155.957611,155.513062 149.161026,156.369614 
	C145.278915,156.858871 144.237961,160.925400 144.860321,164.756760 
	C145.459686,168.446594 147.654251,170.883926 151.425262,171.124664 
	C156.223892,171.430984 161.059250,171.492188 165.863770,171.294601 
	C172.139511,171.036484 174.774628,167.729996 174.182770,160.424545 
M127.978661,267.895996 
	C128.014221,275.288849 132.583908,279.546478 138.133911,277.255310 
	C141.801163,275.741394 144.265594,273.085754 143.848480,268.888458 
	C143.472977,265.109802 141.390411,262.403351 137.418411,261.712341 
	C132.865570,260.920380 129.765076,262.806122 127.978661,267.895996 
z"/>
<path fill="#123E5D" opacity="1.000000" stroke="none" 
	d="
M348.972656,120.070984 
	C348.972656,120.070984 349.391205,119.896057 349.618408,119.900101 
	C357.239899,119.961868 364.634186,120.019592 372.571045,120.432465 
	C374.761536,121.513702 376.409454,122.239807 378.057373,122.965912 
	C379.701965,125.457008 381.346588,127.948105 383.057770,130.821991 
	C383.124359,131.204773 383.193848,131.618774 382.804321,132.098679 
	C382.276215,148.428711 382.137665,164.278839 381.865906,180.444519 
	C380.408051,183.125961 379.153137,185.534470 377.739685,187.846069 
	C376.245514,190.289566 374.600342,192.640747 373.021118,195.032257 
	C373.021118,195.032242 373.005310,194.996796 372.647614,194.993439 
	C371.192352,195.656387 370.094757,196.322693 368.997192,196.988998 
	C368.997192,196.988998 368.577332,197.257660 368.104095,196.991653 
	C364.870605,196.846725 362.097290,196.842697 359.354218,197.128754 
	C357.187592,197.354691 355.058167,197.937317 352.912201,198.361542 
	C331.938324,198.427750 310.964447,198.493958 289.441101,198.201172 
	C287.899292,197.984192 286.906952,198.126190 285.914642,198.268188 
	C285.399017,198.663345 284.883392,199.058487 283.894226,200.020691 
	C283.279388,205.704758 282.994568,210.823639 283.061096,215.937943 
	C283.091461,218.273697 283.814697,220.600433 284.223694,222.931259 
	C284.223694,222.931259 284.657837,223.036194 284.855774,223.493866 
	C286.063538,223.835342 287.073364,223.719116 288.083221,223.602905 
	C303.060272,223.525848 318.037323,223.448776 333.648804,223.807205 
	C336.063538,224.363358 337.843842,224.484024 339.624176,224.604691 
	C339.952332,224.566299 340.265747,224.617737 340.954651,225.162445 
	C342.786438,226.818832 344.167999,228.149796 345.679565,229.311600 
	C353.440399,235.276535 360.794342,241.637054 361.996094,252.135880 
	C362.564606,257.102417 362.192688,262.176605 362.246826,267.202026 
	C362.246826,267.202026 362.062347,267.059021 361.858856,267.275208 
	C361.498718,268.383118 361.342072,269.274811 361.185425,270.166534 
	C361.185425,270.166534 361.047791,270.065674 360.839783,270.249268 
	C360.399689,271.253784 360.167542,272.074707 359.935425,272.895599 
	C359.935425,272.895599 359.996124,272.947815 359.600952,272.981476 
	C357.139404,276.016785 355.072998,279.018402 353.006592,282.020020 
	C346.115784,288.533203 337.995453,291.255951 328.470886,291.030487 
	C314.001465,290.688080 299.517975,290.940948 285.078491,290.940948 
	C282.039886,343.760345 254.530792,374.587341 202.098251,383.619080 
	C199.609497,383.550751 197.807327,383.776031 196.005157,384.001343 
	C195.247971,384.076050 194.490799,384.150757 193.076202,383.815613 
	C175.854568,383.284424 159.290375,383.153931 142.725937,383.081665 
	C142.170486,383.079224 141.612488,383.664825 141.055664,383.976318 
	C140.893860,384.043793 140.732040,384.111237 140.313354,384.244202 
	C137.798157,384.067291 135.377426,384.261322 133.314590,383.493622 
	C128.713348,381.781219 127.260124,377.590851 129.127289,371.223694 
	C129.762482,370.507019 129.914429,370.222168 129.964325,369.882843 
	C130.077545,369.588165 130.263687,369.350586 131.137024,369.074890 
	C134.980545,368.321716 138.196335,367.188202 141.441589,367.096313 
	C150.594925,366.837097 159.761398,367.084503 168.920578,366.967072 
	C172.612778,366.919739 176.299500,366.442932 180.396515,366.086121 
	C182.180389,365.923553 183.556458,365.836426 185.394226,365.844055 
	C191.794495,365.637329 197.816391,365.860077 203.655289,364.931763 
	C218.551773,362.563324 231.811554,356.679474 242.308258,345.038696 
	C242.722748,344.648071 242.898300,344.361816 243.029739,344.055481 
	C242.985626,344.035431 243.062164,344.096436 243.325409,344.033020 
	C243.751236,343.669128 243.913818,343.368591 244.081787,343.096802 
	C244.087158,343.125519 244.145615,343.126434 244.474060,343.084106 
	C245.908813,341.727509 247.015106,340.413300 248.109238,339.064453 
	C248.097076,339.029816 248.055878,339.090607 248.315765,339.010529 
	C248.777985,338.636627 248.980331,338.342773 249.377502,337.932953 
	C249.803528,337.605499 249.952148,337.346619 250.316315,336.881531 
	C252.769135,333.163666 254.923843,329.604614 257.052246,326.018494 
	C257.025909,325.991425 257.047333,326.063812 257.323303,325.852417 
	C259.057098,322.137390 260.725037,318.704742 261.935425,315.117676 
	C266.571136,301.379578 264.757294,287.121765 265.072510,273.044434 
	C265.032715,273.048706 265.065674,273.121674 265.529053,273.096283 
	C286.292175,272.963074 306.591949,272.855286 327.242096,272.786926 
	C328.058105,272.775116 328.523712,272.723877 329.346436,272.721985 
	C332.165436,271.547668 334.627350,270.323975 337.088013,269.108887 
	C337.086823,269.117493 337.108215,269.123810 337.450653,269.070068 
	C345.286530,263.152466 346.212158,254.463531 340.018097,247.972351 
	C339.998718,247.997101 340.051697,247.963608 339.906097,247.692871 
	C339.207306,247.236404 338.654114,247.050690 338.128418,246.864044 
	C338.155884,246.863129 338.154205,246.808151 338.143890,246.521927 
	C337.584564,245.780838 337.035553,245.325989 336.226807,244.580673 
	C334.329376,243.587082 332.713257,242.343018 331.050201,242.276733 
	C324.686951,242.023102 318.308563,242.148178 311.475586,242.063477 
	C295.740845,241.928726 280.466370,241.862366 265.145874,241.343933 
	C265.089050,230.731705 265.440094,220.554520 264.962952,210.416336 
	C264.511719,200.827927 267.126801,192.742355 274.102722,186.083542 
	C274.112732,186.054382 274.114868,186.121078 274.440735,186.085602 
	C275.845642,185.364975 276.924652,184.679810 278.321289,183.961517 
	C279.416016,183.588150 280.193146,183.247910 281.398071,182.951538 
	C286.779663,182.690872 291.731964,182.154480 296.687561,182.121872 
	C318.452942,181.978653 340.219238,181.981049 362.225769,181.955353 
	C362.466339,181.980042 362.946167,181.919525 363.307495,181.698181 
	C363.733978,168.956818 363.799164,156.436768 363.915344,143.487000 
	C363.966339,141.473663 363.966339,139.890076 363.966339,138.063736 
	C361.278534,138.063736 359.172882,138.063736 356.715118,138.008270 
	C355.890411,137.988098 355.417816,138.023376 354.485138,137.997421 
	C325.815582,137.931091 297.605927,137.883667 269.396790,137.975708 
	C265.961853,137.986908 262.529358,138.748260 258.704712,139.144073 
	C250.343048,141.099915 242.607285,143.571945 236.172302,149.548553 
	C234.184509,151.040787 232.489227,152.408813 230.492950,153.924042 
	C227.107407,157.086533 223.604004,159.781601 221.011383,163.172958 
	C210.266357,177.228302 204.600021,192.996521 205.149139,210.941925 
	C205.464386,221.244034 204.968246,231.570984 204.379272,241.904572 
	C193.242950,242.000534 182.564713,242.078690 171.886490,242.156860 
	C158.239044,242.107529 144.591034,242.114426 130.944519,241.975174 
	C126.761513,241.932480 122.865250,240.955200 121.836418,236.019562 
	C120.905960,231.555847 122.496964,228.019913 126.685402,226.218719 
	C128.739944,225.335205 131.202713,225.107788 133.484055,225.092941 
	C147.301102,225.002975 161.119125,225.060577 174.936813,225.067795 
	C178.717239,225.069763 182.497650,225.068100 186.462357,225.068100 
	C186.462357,218.609726 186.462357,212.680618 186.462357,206.039841 
	C179.341476,206.039841 172.432343,206.072067 165.523666,206.030273 
	C159.309006,205.992676 156.296844,203.483063 156.021957,198.237061 
	C155.751205,193.069977 159.158981,189.425049 165.099594,189.230835 
	C172.576309,188.986389 180.067078,189.171921 187.502396,189.171921 
	C189.625778,183.550629 191.658386,178.169647 193.978378,172.141724 
	C196.813858,166.700272 199.361938,161.905777 201.910004,157.111267 
	C213.888474,139.522308 229.770462,127.261436 250.475861,121.637192 
	C253.016281,120.947136 255.645691,120.584610 258.960571,120.386116 
	C260.338104,120.800072 260.988892,120.983681 261.639771,120.984077 
	C289.517883,121.001160 317.396057,121.013885 345.274078,120.965172 
	C346.507446,120.963020 347.739807,120.382248 348.972656,120.070984 
z"/>
<path fill="#143D5B" opacity="1.000000" stroke="none" 
	d="
M124.020966,344.871124 
	C123.485649,344.541962 122.950340,344.212799 122.096504,343.922974 
	C121.630470,343.391296 121.482971,342.820312 121.170319,342.101624 
	C121.840950,332.894562 124.061234,330.865326 133.143082,330.870544 
	C139.432587,330.874176 145.728241,331.056335 152.009598,330.833405 
	C156.733307,330.665710 160.163223,332.246368 161.638672,336.832764 
	C163.184875,341.639069 160.837891,344.749420 155.991791,346.566345 
	C145.107544,345.975494 134.891418,345.648468 124.675285,345.321411 
	C124.675285,345.321442 124.951469,345.300690 124.857437,345.140228 
	C124.515923,344.943542 124.268448,344.907318 124.020966,344.871124 
z"/>
<path fill="#1D3B4C" opacity="1.000000" stroke="none" 
	d="
M179.988708,366.161560 
	C176.299500,366.442932 172.612778,366.919739 168.920578,366.967072 
	C159.761398,367.084503 150.594925,366.837097 141.441589,367.096313 
	C138.196335,367.188202 134.980545,368.321716 131.344086,368.976990 
	C132.729721,367.968842 134.522598,366.963379 136.696732,365.958252 
	C149.416946,365.960083 161.755890,365.961578 174.968384,365.965271 
	C177.224182,366.032135 178.606445,366.096863 179.988708,366.161560 
z"/>
<path fill="#143045" opacity="1.000000" stroke="none" 
	d="
M377.903931,122.662216 
	C376.409454,122.239807 374.761536,121.513702 373.036682,120.450958 
	C374.556671,120.862381 376.153595,121.610451 377.903931,122.662216 
z"/>
<path fill="#1D3B4C" opacity="1.000000" stroke="none" 
	d="
M129.730331,369.991760 
	C129.914429,370.222168 129.762482,370.507019 129.302063,370.868896 
	C129.229187,370.700470 129.362762,370.400604 129.730331,369.991760 
z"/>
<path fill="#3D5D70" opacity="1.000000" stroke="none" 
	d="
M362.524719,266.928589 
	C362.192688,262.176605 362.564606,257.102417 361.996094,252.135880 
	C360.794342,241.637054 353.440399,235.276535 345.679565,229.311600 
	C344.167999,228.149796 342.786438,226.818832 341.168701,225.272217 
	C357.710449,229.653748 367.261566,247.904861 362.524719,266.928589 
z"/>
<path fill="#113345" opacity="1.000000" stroke="none" 
	d="
M141.508850,384.078979 
	C141.612488,383.664825 142.170486,383.079224 142.725937,383.081665 
	C159.290375,383.153931 175.854568,383.284424 192.707672,383.708191 
	C175.985062,384.067627 158.973541,384.124634 141.508850,384.078979 
z"/>
<path fill="#113345" opacity="1.000000" stroke="none" 
	d="
M381.999084,180.128967 
	C382.137665,164.278839 382.276215,148.428711 382.717346,132.289734 
	C383.027344,147.683380 383.034729,163.365875 382.742065,179.551941 
	C382.442047,180.055496 381.999084,180.128967 381.999084,180.128967 
z"/>
<path fill="#3D5D70" opacity="1.000000" stroke="none" 
	d="
M381.865906,180.444519 
	C381.999084,180.128967 382.442047,180.055496 382.662476,180.013046 
	C382.433105,186.560806 378.806152,191.198303 373.357239,194.977417 
	C374.600342,192.640747 376.245514,190.289566 377.739685,187.846069 
	C379.153137,185.534470 380.408051,183.125961 381.865906,180.444519 
z"/>
<path fill="#3D5D70" opacity="1.000000" stroke="none" 
	d="
M353.352783,198.516251 
	C355.058167,197.937317 357.187592,197.354691 359.354218,197.128754 
	C362.097290,196.842697 364.870605,196.846725 367.856323,197.018616 
	C363.318939,197.764725 358.556152,198.217834 353.352783,198.516251 
z"/>
<path fill="#17364A" opacity="1.000000" stroke="none" 
	d="
M284.262207,222.468597 
	C283.814697,220.600433 283.091461,218.273697 283.061096,215.937943 
	C282.994568,210.823639 283.279388,205.704758 283.726807,200.304199 
	C284.122131,207.349091 284.211426,214.677521 284.262207,222.468597 
z"/>
<path fill="#3D5D70" opacity="1.000000" stroke="none" 
	d="
M353.336578,281.940521 
	C355.072998,279.018402 357.139404,276.016785 359.561005,272.983826 
	C357.832977,275.921997 355.749756,278.891510 353.336578,281.940521 
z"/>
<path fill="#3D5D70" opacity="1.000000" stroke="none" 
	d="
M339.332153,224.364731 
	C337.843842,224.484024 336.063538,224.363358 334.097595,223.922882 
	C335.621368,223.776962 337.330780,223.950867 339.332153,224.364731 
z"/>
<path fill="#113345" opacity="1.000000" stroke="none" 
	d="
M196.424454,384.087250 
	C197.807327,383.776031 199.609497,383.550751 201.684723,383.561188 
	C200.253098,383.922333 198.548431,384.047729 196.424454,384.087250 
z"/>
<path fill="#3D5D70" opacity="1.000000" stroke="none" 
	d="
M369.333527,197.006958 
	C370.094757,196.322693 371.192352,195.656387 372.661835,195.007919 
	C371.912445,195.692139 370.791168,196.358536 369.333527,197.006958 
z"/>
<path fill="#3D5D70" opacity="1.000000" stroke="none" 
	d="
M286.291199,198.439499 
	C286.906952,198.126190 287.899292,197.984192 288.992462,198.089371 
	C288.284790,198.427963 287.476288,198.519379 286.291199,198.439499 
z"/>
<path fill="#3D5D70" opacity="1.000000" stroke="none" 
	d="
M287.709656,223.451065 
	C287.073364,223.719116 286.063538,223.835342 284.990845,223.671722 
	C285.730743,223.360992 286.533417,223.330109 287.709656,223.451065 
z"/>
<path fill="#3D5D70" opacity="1.000000" stroke="none" 
	d="
M360.160522,272.672974 
	C360.167542,272.074707 360.399689,271.253784 360.920776,270.276093 
	C360.935028,270.896301 360.660309,271.673309 360.160522,272.672974 
z"/>
<path fill="#3D5D70" opacity="1.000000" stroke="none" 
	d="
M361.453796,269.963745 
	C361.342072,269.274811 361.498718,268.383118 361.963623,267.326599 
	C362.088654,268.028198 361.905426,268.894562 361.453796,269.963745 
z"/>
<path fill="#94EDBC" opacity="1.000000" stroke="none" 
	d="
M265.191925,241.796005 
	C280.466370,241.862366 295.740845,241.928726 311.491394,242.423889 
	C311.999176,243.573624 312.030823,244.294540 312.038849,245.440659 
	C313.060364,251.051636 310.110260,254.494431 306.360107,257.838379 
	C304.083221,257.964081 302.261230,258.092346 300.438538,258.103180 
	C284.681519,258.197052 268.924377,258.269806 252.700043,258.246338 
	C250.236923,258.111176 248.220459,258.249268 246.249252,258.011658 
	C241.571136,257.447784 239.825348,259.096497 239.936493,264.067780 
	C240.241394,277.705505 240.015182,291.355103 239.840530,305.343475 
	C238.169830,310.466949 236.657806,315.246918 234.968872,320.323669 
	C231.150757,325.702393 227.509552,330.784363 223.929596,335.932495 
	C223.990845,335.998627 223.872253,335.867035 223.546097,335.916016 
	C221.818024,337.319611 220.416092,338.674255 218.704254,340.080536 
	C217.608978,340.775360 216.823608,341.418579 215.670731,342.069183 
	C207.289444,344.523285 199.363983,347.339508 191.230072,349.283569 
	C186.020416,350.528687 180.503174,350.486816 175.123840,351.021912 
	C175.093246,345.636719 175.062668,340.251556 175.487854,334.478058 
	C179.864471,334.071899 183.786316,334.103973 187.706039,334.027740 
	C206.433273,333.663666 222.621780,317.629028 222.943558,298.896423 
	C223.152283,286.744232 222.895798,274.584137 223.099564,262.431793 
	C223.159622,258.849487 221.888763,257.923981 218.481094,257.959930 
	C203.663055,258.116180 188.842499,258.033051 173.865860,257.680756 
	C171.929901,248.431992 173.848022,245.893951 182.359634,246.024933 
	C183.990524,246.050034 185.621841,246.591049 187.243835,246.548325 
	C192.475250,246.410416 197.728165,246.326797 202.911453,245.708328 
	C204.073242,245.569702 204.985611,243.340744 206.346649,242.015137 
	C207.127823,241.892120 207.575165,241.828110 208.480133,241.830963 
	C212.957458,241.861237 216.977142,241.824646 221.313934,241.808990 
	C222.075607,241.218536 222.520172,240.607162 222.986740,239.527832 
	C223.005203,230.374573 223.001694,221.689285 223.158279,212.628647 
	C223.829803,208.167374 224.341202,204.081467 224.903702,199.615189 
	C225.311081,197.495468 225.667374,195.756104 226.284271,193.788177 
	C227.670013,190.705582 228.795166,187.851517 230.015503,184.668274 
	C231.099503,182.292557 232.088333,180.246017 233.297836,178.060165 
	C233.698410,177.631012 233.878311,177.341156 234.027924,177.028183 
	C233.997620,177.005066 234.054077,177.058929 234.288284,176.966629 
	C234.701538,176.598831 234.880585,176.323318 235.048584,176.061768 
	C235.037521,176.075699 235.074402,176.075104 235.398270,176.018707 
	C237.147614,174.307693 238.573090,172.653091 240.270401,170.805511 
	C250.225372,160.470215 262.138885,154.486938 276.056122,154.112808 
	C301.529205,153.428024 327.024780,153.578644 353.703339,153.371628 
	C352.157684,156.833939 350.563721,160.404510 348.666351,164.146561 
	C345.198364,165.600494 342.132355,167.497253 338.846619,168.024445 
	C333.646484,168.858841 328.299164,168.775955 322.546631,169.031509 
	C315.733185,169.026001 309.387268,169.070206 302.572449,169.064651 
	C297.111481,169.009644 292.113220,169.162170 287.128662,168.966721 
	C276.367981,168.544754 266.383820,170.543243 257.554260,177.176208 
	C248.490616,183.984985 242.825058,193.078278 241.189819,204.023376 
	C239.874664,212.826263 240.190765,221.895111 240.076492,230.849701 
	C239.925034,242.717850 240.047836,242.719421 252.583038,241.756805 
	C256.658325,241.770493 260.290283,241.714890 264.235809,241.729111 
	C264.763580,241.797958 264.977753,241.796982 265.191925,241.796005 
z"/>
<path fill="#123E5D" opacity="1.000000" stroke="none" 
	d="
M185.001587,297.138031 
	C185.178741,297.087341 185.355896,297.036682 186.198151,296.902527 
	C187.126724,291.186340 187.414978,285.554352 187.581314,279.918762 
	C187.589737,279.633209 186.546783,279.316650 185.993362,279.014526 
	C185.993362,279.014526 185.999359,279.000000 185.704437,278.704437 
	C177.723312,278.334198 170.037109,278.259521 162.350922,278.184875 
	C156.971985,277.058899 156.661942,273.040894 156.953705,268.696533 
	C157.241943,264.404755 159.630951,262.110596 163.833908,261.716217 
	C166.291351,261.485657 168.766266,261.441345 172.107666,261.262146 
	C183.583298,261.210999 194.184586,261.210999 204.779251,261.210999 
	C204.999741,262.506653 205.205399,263.150665 205.204483,263.794312 
	C205.190140,273.789795 205.379913,283.792786 205.055191,293.778809 
	C204.657059,306.023010 196.074112,314.060394 183.886917,314.134338 
	C180.891083,314.152496 177.895462,314.209625 174.899750,314.248840 
	C174.899750,314.248840 174.836945,314.115997 174.613342,313.761108 
	C159.262848,313.270966 144.135971,313.135712 128.595963,313.039856 
	C127.910332,313.126984 127.637810,313.174713 127.365295,313.222412 
	C127.365295,313.222412 127.151146,313.279510 127.023041,312.834412 
	C124.315010,309.497162 122.755241,306.063049 124.513344,302.456268 
	C126.370964,298.645203 130.110855,297.711151 134.246017,297.967712 
	C141.152817,298.396179 148.068741,298.806519 154.985580,298.912018 
	C164.008636,299.049622 173.037262,298.934906 182.060669,298.772064 
	C183.050476,298.754181 184.021729,297.707550 185.001587,297.138031 
z"/>
<path fill="#55D191" opacity="1.000000" stroke="none" 
	d="
M174.938431,314.698486 
	C177.895462,314.209625 180.891083,314.152496 183.886917,314.134338 
	C196.074112,314.060394 204.657059,306.023010 205.055191,293.778809 
	C205.379913,283.792786 205.190140,273.789795 205.204483,263.794312 
	C205.205399,263.150665 204.999741,262.506653 204.779251,261.210999 
	C194.184586,261.210999 183.583298,261.210999 172.522736,261.133057 
	C172.036102,260.603973 172.008743,260.152771 172.302353,259.326172 
	C173.089828,258.646118 173.556351,258.341522 174.022858,258.036926 
	C188.842499,258.033051 203.663055,258.116180 218.481094,257.959930 
	C221.888763,257.923981 223.159622,258.849487 223.099564,262.431793 
	C222.895798,274.584137 223.152283,286.744232 222.943558,298.896423 
	C222.621780,317.629028 206.433273,333.663666 187.706039,334.027740 
	C183.786316,334.103973 179.864471,334.071899 175.561752,334.011505 
	C175.112305,327.671539 175.044708,321.409821 174.938431,314.698486 
z"/>
<path fill="#183F5B" opacity="1.000000" stroke="none" 
	d="
M174.290451,160.792160 
	C174.774628,167.729996 172.139511,171.036484 165.863770,171.294601 
	C161.059250,171.492188 156.223892,171.430984 151.425262,171.124664 
	C147.654251,170.883926 145.459686,168.446594 144.860321,164.756760 
	C144.237961,160.925400 145.278915,156.858871 149.161026,156.369614 
	C155.957611,155.513062 162.944489,155.775024 169.814072,156.190079 
	C171.349976,156.282883 172.730637,158.945206 174.290451,160.792160 
z"/>
<path fill="#53D38F" opacity="1.000000" stroke="none" 
	d="
M175.093719,351.485931 
	C180.503174,350.486816 186.020416,350.528687 191.230072,349.283569 
	C199.363983,347.339508 207.289444,344.523285 215.637024,342.410034 
	C212.947174,346.143555 209.923523,349.543701 206.559082,352.986755 
	C203.808090,354.669830 201.397858,356.309998 198.669403,357.987335 
	C197.562881,358.673828 196.774567,359.323090 195.637146,360.017273 
	C193.548416,361.008240 191.808792,361.954376 189.855652,362.677979 
	C188.072266,363.553406 186.502396,364.651367 184.932526,365.749329 
	C183.556458,365.836426 182.180389,365.923553 180.396515,366.086121 
	C178.606445,366.096863 177.224182,366.032135 175.435699,365.907349 
	C175.040848,361.214813 175.052246,356.582367 175.093719,351.485931 
z"/>
<path fill="#5FCC95" opacity="1.000000" stroke="none" 
	d="
M128.043091,267.498627 
	C129.765076,262.806122 132.865570,260.920380 137.418411,261.712341 
	C141.390411,262.403351 143.472977,265.109802 143.848480,268.888458 
	C144.265594,273.085754 141.801163,275.741394 138.133911,277.255310 
	C132.583908,279.546478 128.014221,275.288849 128.043091,267.498627 
z"/>
<path fill="#98E3C0" opacity="1.000000" stroke="none" 
	d="
M173.865875,257.680786 
	C173.556351,258.341522 173.089828,258.646118 172.335175,258.988525 
	C171.999451,253.708176 171.951889,248.390015 171.895416,242.614349 
	C182.564713,242.078690 193.242950,242.000534 204.671204,241.964325 
	C205.618423,242.028885 205.815613,242.051498 206.012817,242.074127 
	C204.985611,243.340744 204.073242,245.569702 202.911453,245.708328 
	C197.728165,246.326797 192.475250,246.410416 187.243835,246.548325 
	C185.621841,246.591049 183.990524,246.050034 182.359634,246.024933 
	C173.848022,245.893951 171.929901,248.431992 173.865875,257.680786 
z"/>
<path fill="#5BCB95" opacity="1.000000" stroke="none" 
	d="
M201.528168,157.103806 
	C199.361938,161.905777 196.813858,166.700272 194.074127,171.801880 
	C192.991257,171.704468 192.094696,171.311295 191.209732,170.893509 
	C186.756500,168.791046 185.043365,164.606735 186.835541,160.225998 
	C188.501923,156.152802 193.855484,153.988464 198.049438,155.709641 
	C199.095291,156.138855 200.114761,156.632385 201.528168,157.103806 
z"/>
<path fill="#223F55" opacity="1.000000" stroke="none" 
	d="
M184.539124,297.056213 
	C184.021729,297.707550 183.050476,298.754181 182.060669,298.772064 
	C173.037262,298.934906 164.008636,299.049622 154.985580,298.912018 
	C148.068741,298.806519 141.152817,298.396179 134.246017,297.967712 
	C130.110855,297.711151 126.370964,298.645203 124.513344,302.456268 
	C122.755241,306.063049 124.315010,309.497162 126.945763,312.754974 
	C122.385719,311.624603 120.979324,308.104462 121.773041,303.801514 
	C122.657402,299.007141 126.187111,296.987061 130.827911,296.975861 
	C148.577393,296.933014 166.327072,296.968262 184.539124,297.056213 
z"/>
<path fill="#143045" opacity="1.000000" stroke="none" 
	d="
M348.512146,119.991486 
	C347.739807,120.382248 346.507446,120.963020 345.274078,120.965172 
	C317.396057,121.013885 289.517883,121.001160 261.639771,120.984077 
	C260.988892,120.983681 260.338104,120.800072 259.366577,120.446327 
	C277.938599,120.089127 296.831268,119.964798 315.724121,119.894730 
	C326.499786,119.854767 337.275818,119.903305 348.512146,119.991486 
z"/>
<path fill="#17364A" opacity="1.000000" stroke="none" 
	d="
M129.009079,313.000488 
	C144.135971,313.135712 159.262848,313.270966 174.668060,313.712067 
	C159.941116,314.017303 144.935837,314.016693 129.470520,313.715271 
	C129.010452,313.414459 129.009079,313.000488 129.009079,313.000488 
z"/>
<path fill="#223F55" opacity="1.000000" stroke="none" 
	d="
M186.186050,279.447968 
	C186.546783,279.316650 187.589737,279.633209 187.581314,279.918762 
	C187.414978,285.554352 187.126724,291.186340 186.474136,296.917328 
	C186.182922,291.304199 186.280838,285.592804 186.186050,279.447968 
z"/>
<path fill="#17364A" opacity="1.000000" stroke="none" 
	d="
M124.928322,345.633423 
	C134.891418,345.648468 145.107544,345.975494 155.642609,346.561890 
	C145.701477,346.529297 135.441422,346.237335 124.928322,345.633423 
z"/>
<path fill="#223F55" opacity="1.000000" stroke="none" 
	d="
M162.708405,278.486084 
	C170.037109,278.259521 177.723312,278.334198 185.698090,278.710083 
	C178.346420,278.936584 170.706146,278.861908 162.708405,278.486084 
z"/>
<path fill="#223F55" opacity="1.000000" stroke="none" 
	d="
M128.595963,313.039856 
	C129.009079,313.000488 129.010452,313.414459 129.010910,313.621460 
	C128.599213,313.789886 128.187073,313.751343 127.570107,313.467590 
	C127.637810,313.174713 127.910332,313.126984 128.595963,313.039856 
z"/>
<path fill="#17364A" opacity="1.000000" stroke="none" 
	d="
M124.139542,345.057434 
	C124.268448,344.907318 124.515923,344.943542 124.722908,345.173096 
	C124.682419,345.366455 124.258118,345.243744 124.139542,345.057434 
z"/>
<path fill="#27C26B" opacity="1.000000" stroke="none" 
	d="
M253.167282,258.348816 
	C268.924377,258.269806 284.681519,258.197052 300.438538,258.103180 
	C302.261230,258.092346 304.083221,257.964081 306.838196,257.921814 
	C318.985687,258.984985 329.168091,257.378326 336.273834,246.954163 
	C337.152069,246.910706 337.653137,246.859421 338.154205,246.808136 
	C338.154205,246.808151 338.155884,246.863129 338.251282,247.148285 
	C338.915009,247.610168 339.483337,247.786896 340.051697,247.963608 
	C340.051697,247.963608 339.998718,247.997101 340.000488,248.359497 
	C344.083954,255.761688 343.126129,262.061493 337.278870,267.691925 
	C337.010864,267.950012 337.155670,268.636719 337.108215,269.123810 
	C337.108215,269.123810 337.086823,269.117493 336.703857,269.078400 
	C333.877014,270.250397 331.433167,271.461517 328.989319,272.672638 
	C328.523712,272.723877 328.058105,272.775116 326.928711,272.544312 
	C306.723389,272.176697 287.181824,272.076813 267.640167,272.053253 
	C266.782440,272.052216 265.923859,272.749603 265.065674,273.121674 
	C265.065674,273.121674 265.032715,273.048706 264.746582,273.311005 
	C264.309570,274.377716 264.012207,275.185333 264.029572,275.986084 
	C264.320953,289.406067 264.401459,302.791229 260.014801,315.749268 
	C258.868835,319.134369 258.028198,322.622833 257.047333,326.063812 
	C257.047333,326.063812 257.025909,325.991425 256.692596,326.032654 
	C254.245575,329.729370 252.131882,333.384857 250.018188,337.040314 
	C249.952148,337.346619 249.803528,337.605499 249.114624,338.013672 
	C248.456573,338.503784 248.256226,338.797211 248.055878,339.090607 
	C248.055878,339.090607 248.097076,339.029816 247.733612,339.061829 
	C246.295288,340.438080 245.220459,341.782257 244.145630,343.126434 
	C244.145615,343.126434 244.087158,343.125519 243.839966,343.184814 
	C243.415909,343.528198 243.239029,343.812317 243.062164,344.096436 
	C243.062164,344.096436 242.985626,344.035431 242.760315,344.023224 
	C242.354752,344.006287 242.174484,344.001526 241.641479,344.034607 
	C237.983994,346.593933 234.797760,349.295898 231.331970,351.572235 
	C229.100586,353.037872 226.458588,353.878326 223.966003,354.650269 
	C224.438232,353.111237 224.649124,351.620972 225.501022,350.780334 
	C230.246094,346.097839 235.146530,341.572815 240.135895,336.671204 
	C242.519974,331.900635 244.761963,327.452759 247.277435,322.766296 
	C249.357132,316.013550 251.163361,309.499329 252.978256,302.517517 
	C253.047043,287.482849 253.107162,272.915833 253.167282,258.348816 
z"/>
<path fill="#50D38D" opacity="1.000000" stroke="none" 
	d="
M252.139709,241.687500 
	C240.047836,242.719421 239.925034,242.717850 240.076492,230.849701 
	C240.190765,221.895111 239.874664,212.826263 241.189819,204.023376 
	C242.825058,193.078278 248.490616,183.984985 257.554260,177.176208 
	C266.383820,170.543243 276.367981,168.544754 287.128662,168.966721 
	C292.113220,169.162170 297.111481,169.009644 302.515381,169.401825 
	C297.721100,172.847305 292.502594,175.885193 287.320740,178.984329 
	C286.441437,179.510193 285.719543,180.299225 284.558289,180.968185 
	C283.117798,181.615692 282.044037,182.261688 280.970245,182.907669 
	C280.193146,183.247910 279.416016,183.588150 278.129120,183.713394 
	C276.451172,184.372620 275.283020,185.246857 274.114868,186.121094 
	C274.114868,186.121078 274.112732,186.054382 273.737976,186.070450 
	C271.240814,187.367004 269.118439,188.647491 266.653137,189.987305 
	C258.746918,195.682663 253.123428,202.995377 252.219101,212.356155 
	C251.283020,222.045395 252.093307,231.903351 252.139709,241.687500 
z"/>
<path fill="#29C06C" opacity="1.000000" stroke="none" 
	d="
M323.014130,169.081223 
	C328.299164,168.775955 333.646484,168.858841 338.846619,168.024445 
	C342.132355,167.497253 345.198364,165.600494 349.023438,164.127563 
	C353.446747,160.256119 357.209534,156.575150 361.315552,153.106140 
	C362.101746,154.985397 362.900940,156.647141 362.927032,158.320938 
	C363.049713,166.185333 362.960052,174.053009 362.946167,181.919525 
	C362.946167,181.919525 362.466339,181.980042 361.928162,181.667877 
	C344.261353,181.231934 327.132660,181.108139 310.043457,180.629425 
	C311.726776,179.140930 313.509308,178.162140 314.984650,176.840454 
	C317.754913,174.358704 320.347595,171.678757 323.014130,169.081223 
z"/>
<path fill="#59CC95" opacity="1.000000" stroke="none" 
	d="
M354.945221,138.058655 
	C355.417816,138.023376 355.890411,137.988098 356.970551,138.279465 
	C359.371979,139.756516 363.312531,137.487091 362.644440,142.037292 
	C360.171967,141.530365 358.047699,140.991028 355.243469,140.279053 
	C356.284546,145.158051 353.047913,145.160034 349.651764,145.077591 
	C346.420471,144.999161 343.184723,144.987442 339.953278,145.056686 
	C329.957367,145.270828 319.962494,145.731094 309.967346,145.728348 
	C300.379578,145.725693 290.792633,145.235092 281.203979,145.018265 
	C277.375397,144.931686 273.543182,145.004013 269.997833,145.004013 
	C269.997833,142.945496 269.997833,141.469269 270.295410,139.700378 
	C272.398712,139.271667 274.204285,139.019104 276.010162,139.017197 
	C300.426056,138.991318 324.842041,139.021149 349.257812,138.959930 
	C351.154358,138.955185 353.049438,138.372635 354.945221,138.058655 
z"/>
<path fill="#59CC95" opacity="1.000000" stroke="none" 
	d="
M206.346649,242.015137 
	C205.815613,242.051498 205.618423,242.028885 205.129303,241.946503 
	C204.968246,231.570984 205.464386,221.244034 205.149139,210.941925 
	C204.600021,192.996521 210.266357,177.228302 221.011383,163.172958 
	C223.604004,159.781601 227.107407,157.086533 230.555023,153.990768 
	C230.918060,153.910278 231.042877,154.043076 231.023849,154.411987 
	C229.021912,157.015869 226.588364,158.993195 225.137009,161.532013 
	C219.898849,170.695053 214.153320,179.711655 210.256317,189.446808 
	C207.697556,195.838898 207.332153,203.355637 207.158295,210.397690 
	C206.900497,220.839691 207.682907,231.307373 208.022522,241.764099 
	C207.575165,241.828110 207.127823,241.892120 206.346649,242.015137 
z"/>
<path fill="#2CC071" opacity="1.000000" stroke="none" 
	d="
M224.000610,354.998962 
	C226.458588,353.878326 229.100586,353.037872 231.331970,351.572235 
	C234.797760,349.295898 237.983994,346.593933 241.650482,344.321838 
	C242.031281,344.761871 242.050293,344.952484 242.069321,345.143066 
	C231.811554,356.679474 218.551773,362.563324 203.655289,364.931763 
	C197.816391,365.860077 191.794495,365.637329 185.394226,365.844055 
	C186.502396,364.651367 188.072266,363.553406 189.726685,362.963196 
	C190.394150,363.647430 190.997849,364.026581 191.556854,363.969299 
	C197.878418,363.321564 204.366318,363.274872 210.454300,361.696533 
	C215.227142,360.459137 219.502823,357.304108 223.999695,355.000488 
	C224.000000,355.000000 224.000610,354.998962 224.000610,354.998962 
z"/>
<path fill="#6AC5A4" opacity="1.000000" stroke="none" 
	d="
M354.485138,137.997437 
	C353.049438,138.372635 351.154358,138.955185 349.257812,138.959930 
	C324.842041,139.021149 300.426056,138.991318 276.010162,139.017197 
	C274.204285,139.019104 272.398712,139.271667 269.867310,139.700806 
	C267.428528,139.998734 265.715424,140.003571 263.625153,140.003876 
	C261.863922,139.720230 260.479828,139.441101 259.095734,139.161957 
	C262.529358,138.748260 265.961853,137.986908 269.396790,137.975708 
	C297.605927,137.883667 325.815582,137.931091 354.485138,137.997437 
z"/>
<path fill="#59CC95" opacity="1.000000" stroke="none" 
	d="
M258.704712,139.144073 
	C260.479828,139.441101 261.863922,139.720230 263.614136,140.379608 
	C262.256195,141.417603 260.532135,142.075348 258.115662,142.997253 
	C257.678345,144.966248 256.762268,147.439178 252.835800,144.675995 
	C251.950424,144.052933 249.353867,144.220322 248.878143,144.924484 
	C245.944473,149.266861 241.462616,149.498291 236.887268,149.865387 
	C236.754593,149.710785 236.464813,149.424347 236.464813,149.424347 
	C242.607285,143.571945 250.343048,141.099915 258.704712,139.144073 
z"/>
<path fill="#3BB684" opacity="1.000000" stroke="none" 
	d="
M310.003998,180.984344 
	C327.132660,181.108139 344.261353,181.231934 361.687622,181.643188 
	C340.219238,181.981049 318.452942,181.978653 296.687561,182.121872 
	C291.731964,182.154480 286.779663,182.690872 281.398071,182.951538 
	C282.044037,182.261688 283.117798,181.615692 285.035278,180.982269 
	C293.920654,180.991364 301.962311,180.987854 310.003998,180.984344 
z"/>
<path fill="#3BB684" opacity="1.000000" stroke="none" 
	d="
M266.996063,189.927963 
	C269.118439,188.647491 271.240814,187.367004 273.727936,186.099609 
	C267.126801,192.742355 264.511719,200.827927 264.962952,210.416336 
	C265.440094,220.554520 265.089050,230.731705 265.145874,241.343933 
	C264.977753,241.796982 264.763580,241.797958 264.255768,241.292938 
	C263.975250,236.295090 263.796326,231.792923 264.038147,227.313446 
	C264.712067,214.829056 261.797333,202.052643 266.996063,189.927963 
z"/>
<path fill="#36B37E" opacity="1.000000" stroke="none" 
	d="
M257.323303,325.852417 
	C258.028198,322.622833 258.868835,319.134369 260.014801,315.749268 
	C264.401459,302.791229 264.320953,289.406067 264.029572,275.986084 
	C264.012207,275.185333 264.309570,274.377716 264.786407,273.306702 
	C264.757294,287.121765 266.571136,301.379578 261.935425,315.117676 
	C260.725037,318.704742 259.057098,322.137390 257.323303,325.852417 
z"/>
<path fill="#36AA7D" opacity="1.000000" stroke="none" 
	d="
M265.529053,273.096283 
	C265.923859,272.749603 266.782440,272.052216 267.640167,272.053253 
	C287.181824,272.076813 306.723389,272.176697 326.578308,272.504883 
	C306.591949,272.855286 286.292175,272.963074 265.529053,273.096283 
z"/>
<path fill="#63C89E" opacity="1.000000" stroke="none" 
	d="
M312.062439,245.015442 
	C312.030823,244.294540 311.999176,243.573624 311.951691,242.492310 
	C318.308563,242.148178 324.686951,242.023102 331.050201,242.276733 
	C332.713257,242.343018 334.329376,243.587082 335.881958,244.629700 
	C335.568024,244.997269 335.339203,245.025375 334.670837,245.034348 
	C326.841644,245.015305 319.452026,245.015366 312.062439,245.015442 
z"/>
<path fill="#48B989" opacity="1.000000" stroke="none" 
	d="
M363.307495,181.698181 
	C362.960052,174.053009 363.049713,166.185333 362.927032,158.320938 
	C362.900940,156.647141 362.101746,154.985397 361.323242,152.717484 
	C361.662170,149.411804 362.336578,146.706711 363.225281,143.989746 
	C363.439545,143.977875 363.864349,143.916733 363.864380,143.916733 
	C363.799164,156.436768 363.733978,168.956818 363.307495,181.698181 
z"/>
<path fill="#36AA7D" opacity="1.000000" stroke="none" 
	d="
M337.450653,269.070068 
	C337.155670,268.636719 337.010864,267.950012 337.278870,267.691925 
	C343.126129,262.061493 344.083954,255.761688 340.019897,248.334747 
	C346.212158,254.463531 345.286530,263.152466 337.450653,269.070068 
z"/>
<path fill="#36B37E" opacity="1.000000" stroke="none" 
	d="
M250.316315,336.881531 
	C252.131882,333.384857 254.245575,329.729370 256.718933,326.059753 
	C254.923843,329.604614 252.769135,333.163666 250.316315,336.881531 
z"/>
<path fill="#59CC95" opacity="1.000000" stroke="none" 
	d="
M230.855988,153.843567 
	C232.489227,152.408813 234.184509,151.040787 236.172302,149.548553 
	C236.464813,149.424347 236.754593,149.710785 236.840118,150.223175 
	C234.964737,151.838074 233.003799,152.940567 231.042877,154.043076 
	C231.042877,154.043076 230.918060,153.910278 230.855988,153.843567 
z"/>
<path fill="#36AA7D" opacity="1.000000" stroke="none" 
	d="
M329.346436,272.721985 
	C331.433167,271.461517 333.877014,270.250397 336.705048,269.069794 
	C334.627350,270.323975 332.165436,271.547668 329.346436,272.721985 
z"/>
<path fill="#6AC5A4" opacity="1.000000" stroke="none" 
	d="
M363.915344,143.487000 
	C363.864349,143.916733 363.439545,143.977875 363.222900,143.656891 
	C363.001740,142.892242 362.997223,142.448563 362.992676,142.004883 
	C363.312531,137.487091 359.371979,139.756516 357.322662,138.334930 
	C359.172882,138.063736 361.278534,138.063736 363.966339,138.063736 
	C363.966339,139.890076 363.966339,141.473663 363.915344,143.487000 
z"/>
<path fill="#36B37E" opacity="1.000000" stroke="none" 
	d="
M244.474060,343.084106 
	C245.220459,341.782257 246.295288,340.438080 247.745758,339.096497 
	C247.015106,340.413300 245.908813,341.727509 244.474060,343.084106 
z"/>
<path fill="#3BB684" opacity="1.000000" stroke="none" 
	d="
M274.440735,186.085617 
	C275.283020,185.246857 276.451172,184.372620 277.811493,183.746521 
	C276.924652,184.679810 275.845642,185.364975 274.440735,186.085617 
z"/>
<path fill="#36AA7D" opacity="1.000000" stroke="none" 
	d="
M335.110413,245.053467 
	C335.339203,245.025375 335.568024,244.997269 336.141693,244.920151 
	C337.035553,245.325989 337.584564,245.780838 338.143890,246.521912 
	C337.653137,246.859421 337.152069,246.910706 336.198273,246.708893 
	C335.533844,245.988358 335.322113,245.520920 335.110413,245.053467 
z"/>
<path fill="#36AA7D" opacity="1.000000" stroke="none" 
	d="
M339.906097,247.692871 
	C339.483337,247.786896 338.915009,247.610168 338.223785,247.149216 
	C338.654114,247.050690 339.207306,247.236404 339.906097,247.692871 
z"/>
<path fill="#36B37E" opacity="1.000000" stroke="none" 
	d="
M248.315765,339.010529 
	C248.256226,338.797211 248.456573,338.503784 248.919800,338.129669 
	C248.980331,338.342773 248.777985,338.636627 248.315765,339.010529 
z"/>
<path fill="#36B37E" opacity="1.000000" stroke="none" 
	d="
M243.325409,344.033020 
	C243.239029,343.812317 243.415909,343.528198 243.834595,343.156067 
	C243.913818,343.368591 243.751236,343.669128 243.325409,344.033020 
z"/>
<path fill="#36B37E" opacity="1.000000" stroke="none" 
	d="
M242.308258,345.038696 
	C242.050293,344.952484 242.031281,344.761871 242.003235,344.284058 
	C242.174484,344.001526 242.354752,344.006287 242.804428,344.043274 
	C242.898300,344.361816 242.722748,344.648071 242.308258,345.038696 
z"/>
<path fill="#53D58F" opacity="1.000000" stroke="none" 
	d="
M362.644440,142.037292 
	C362.997223,142.448563 363.001740,142.892242 363.008606,143.668777 
	C362.336578,146.706711 361.662170,149.411804 360.980042,152.505539 
	C357.209534,156.575150 353.446747,160.256119 349.326843,163.956085 
	C350.563721,160.404510 352.157684,156.833939 353.703339,153.371628 
	C327.024780,153.578644 301.529205,153.428024 276.056122,154.112808 
	C262.138885,154.486938 250.225372,160.470215 239.885712,170.811768 
	C236.020569,171.202774 234.527512,172.802109 235.074402,176.075104 
	C235.074402,176.075104 235.037521,176.075699 234.815552,176.156021 
	C234.413757,176.510544 234.233917,176.784729 234.054077,177.058929 
	C234.054077,177.058929 233.997620,177.005066 233.783295,177.138153 
	C233.405029,177.580658 233.241089,177.890060 233.077148,178.199463 
	C232.088333,180.246017 231.099503,182.292557 229.663177,184.714783 
	C228.151688,188.065903 227.087677,191.041321 226.023666,194.016739 
	C225.667374,195.756104 225.311081,197.495468 224.547302,199.670273 
	C220.219772,203.996674 219.696136,209.912857 222.998169,213.003998 
	C223.001694,221.689285 223.005203,230.374573 222.685516,239.565674 
	C221.907150,240.643677 221.451996,241.215866 220.996826,241.788055 
	C216.977142,241.824646 212.957458,241.861237 208.480148,241.830963 
	C207.682907,231.307373 206.900497,220.839691 207.158295,210.397690 
	C207.332153,203.355637 207.697556,195.838898 210.256317,189.446808 
	C214.153320,179.711655 219.898849,170.695053 225.137009,161.532013 
	C226.588364,158.993195 229.021912,157.015869 231.023849,154.411987 
	C233.003799,152.940567 234.964737,151.838074 236.972809,150.377777 
	C241.462616,149.498291 245.944473,149.266861 248.878143,144.924484 
	C249.353867,144.220322 251.950424,144.052933 252.835800,144.675995 
	C256.762268,147.439178 257.678345,144.966248 258.115662,142.997253 
	C260.532135,142.075348 262.256195,141.417603 263.991272,140.384125 
	C265.715424,140.003571 267.428528,139.998734 269.569763,139.993484 
	C269.997833,141.469269 269.997833,142.945496 269.997833,145.004013 
	C273.543182,145.004013 277.375397,144.931686 281.203979,145.018265 
	C290.792633,145.235092 300.379578,145.725693 309.967346,145.728348 
	C319.962494,145.731094 329.957367,145.270828 339.953278,145.056686 
	C343.184723,144.987442 346.420471,144.999161 349.651764,145.077591 
	C353.047913,145.160034 356.284546,145.158051 355.243469,140.279053 
	C358.047699,140.991028 360.171967,141.530365 362.644440,142.037292 
z"/>
<path fill="#4DD48D" opacity="1.000000" stroke="none" 
	d="
M252.700043,258.246338 
	C253.107162,272.915833 253.047043,287.482849 252.575195,302.522675 
	C243.978958,302.511169 243.978958,302.511169 239.999207,305.000000 
	C240.015182,291.355103 240.241394,277.705505 239.936493,264.067780 
	C239.825348,259.096497 241.571136,257.447784 246.249252,258.011658 
	C248.220459,258.249268 250.236923,258.111176 252.700043,258.246338 
z"/>
<path fill="#2AC36E" opacity="1.000000" stroke="none" 
	d="
M266.653137,189.987305 
	C261.797333,202.052643 264.712067,214.829056 264.038147,227.313446 
	C263.796326,231.792923 263.975250,236.295090 263.942200,241.223083 
	C260.290283,241.714890 256.658325,241.770493 252.583038,241.756805 
	C252.093307,231.903351 251.283020,222.045395 252.219101,212.356155 
	C253.123428,202.995377 258.746918,195.682663 266.653137,189.987305 
z"/>
<path fill="#2CC071" opacity="1.000000" stroke="none" 
	d="
M239.993835,336.993896 
	C235.146530,341.572815 230.246094,346.097839 225.501022,350.780334 
	C224.649124,351.620972 224.438232,353.111237 223.966003,354.650269 
	C224.000610,354.998962 224.000000,355.000000 223.565979,354.999817 
	C221.193832,355.126953 219.253693,355.372833 217.318268,355.340179 
	C216.015396,355.318207 213.895187,355.297455 213.559174,354.596313 
	C211.887909,351.108887 209.344757,352.487122 206.899857,352.943817 
	C209.923523,349.543701 212.947174,346.143555 216.004532,342.402588 
	C216.823608,341.418579 217.608978,340.775360 218.904419,340.323120 
	C222.733093,340.723083 223.595352,338.575806 223.872253,335.867035 
	C223.872253,335.867035 223.990845,335.998627 224.310211,335.981506 
	C226.911118,336.724457 229.167374,337.999115 231.480682,338.112762 
	C234.293274,338.250946 237.153946,337.410797 239.993835,336.993896 
z"/>
<path fill="#54D590" opacity="1.000000" stroke="none" 
	d="
M334.670837,245.034348 
	C335.322113,245.520920 335.533844,245.988358 335.821106,246.701080 
	C329.168091,257.378326 318.985687,258.984985 307.292786,257.869934 
	C310.110260,254.494431 313.060364,251.051636 312.038849,245.440659 
	C319.452026,245.015366 326.841644,245.015305 334.670837,245.034348 
z"/>
<path fill="#36C77A" opacity="1.000000" stroke="none" 
	d="
M310.043457,180.629425 
	C301.962311,180.987854 293.920654,180.991364 285.401978,180.980774 
	C285.719543,180.299225 286.441437,179.510193 287.320740,178.984329 
	C292.502594,175.885193 297.721100,172.847305 302.984314,169.451599 
	C309.387268,169.070206 315.733185,169.026001 322.546631,169.031509 
	C320.347595,171.678757 317.754913,174.358704 314.984650,176.840454 
	C313.509308,178.162140 311.726776,179.140930 310.043457,180.629425 
z"/>
<path fill="#36C87B" opacity="1.000000" stroke="none" 
	d="
M240.135895,336.671204 
	C237.153946,337.410797 234.293274,338.250946 231.480682,338.112762 
	C229.167374,337.999115 226.911118,336.724457 224.248962,335.915344 
	C227.509552,330.784363 231.150757,325.702393 235.335297,320.323853 
	C239.587051,321.019806 243.295517,322.012329 247.003967,323.004883 
	C244.761963,327.452759 242.519974,331.900635 240.135895,336.671204 
z"/>
<path fill="#40D085" opacity="1.000000" stroke="none" 
	d="
M247.277435,322.766296 
	C243.295517,322.012329 239.587051,321.019806 235.512192,320.027100 
	C236.657806,315.246918 238.169830,310.466949 239.840530,305.343475 
	C243.978958,302.511169 243.978958,302.511169 252.566528,302.990295 
	C251.163361,309.499329 249.357132,316.013550 247.277435,322.766296 
z"/>
<path fill="#59CC95" opacity="1.000000" stroke="none" 
	d="
M223.158279,212.628647 
	C219.696136,209.912857 220.219772,203.996674 224.496216,200.050629 
	C224.341202,204.081467 223.829803,208.167374 223.158279,212.628647 
z"/>
<path fill="#59CC95" opacity="1.000000" stroke="none" 
	d="
M226.284271,193.788177 
	C227.087677,191.041321 228.151688,188.065903 229.568008,185.043976 
	C228.795166,187.851517 227.670013,190.705582 226.284271,193.788177 
z"/>
<path fill="#59CC95" opacity="1.000000" stroke="none" 
	d="
M235.398270,176.018707 
	C234.527512,172.802109 236.020569,171.202774 239.613892,171.004745 
	C238.573090,172.653091 237.147614,174.307693 235.398270,176.018707 
z"/>
<path fill="#36C87B" opacity="1.000000" stroke="none" 
	d="
M223.546097,335.916016 
	C223.595352,338.575806 222.733093,340.723083 219.214325,340.271484 
	C220.416092,338.674255 221.818024,337.319611 223.546097,335.916016 
z"/>
<path fill="#59CC95" opacity="1.000000" stroke="none" 
	d="
M221.313934,241.808990 
	C221.451996,241.215866 221.907150,240.643677 222.663544,240.033630 
	C222.520172,240.607162 222.075607,241.218536 221.313934,241.808990 
z"/>
<path fill="#59CC95" opacity="1.000000" stroke="none" 
	d="
M234.288284,176.966629 
	C234.233917,176.784729 234.413757,176.510544 234.826599,176.142090 
	C234.880585,176.323318 234.701538,176.598831 234.288284,176.966629 
z"/>
<path fill="#59CC95" opacity="1.000000" stroke="none" 
	d="
M233.297821,178.060165 
	C233.241089,177.890060 233.405029,177.580658 233.813599,177.161285 
	C233.878311,177.341156 233.698410,177.631012 233.297821,178.060165 
z"/>
<path fill="#27C26B" opacity="1.000000" stroke="none" 
	d="
M206.559082,352.986755 
	C209.344757,352.487122 211.887909,351.108887 213.559174,354.596313 
	C213.895187,355.297455 216.015396,355.318207 217.318268,355.340179 
	C219.253693,355.372833 221.193832,355.126953 223.565674,355.000305 
	C219.502823,357.304108 215.227142,360.459137 210.454300,361.696533 
	C204.366318,363.274872 197.878418,363.321564 191.556854,363.969299 
	C190.997849,364.026581 190.394150,363.647430 189.940186,363.185730 
	C191.808792,361.954376 193.548416,361.008240 195.852005,360.283875 
	C197.273193,359.653839 198.130417,358.802002 198.987625,357.950134 
	C201.397858,356.309998 203.808090,354.669830 206.559082,352.986755 
z"/>
<path fill="#2CC071" opacity="1.000000" stroke="none" 
	d="
M198.669418,357.987366 
	C198.130417,358.802002 197.273193,359.653839 196.201111,360.239014 
	C196.774567,359.323090 197.562881,358.673828 198.669418,357.987366 
z"/>
</svg>